<svg xmlns="http://www.w3.org/2000/svg" viewBox="0 0 433.53 529.18"><defs><style>.cls-1,.cls-10,.cls-12,.cls-13,.cls-14,.cls-15,.cls-18,.cls-19,.cls-20,.cls-21,.cls-3,.cls-6,.cls-8,.cls-9{fill:none;}.cls-1,.cls-10,.cls-11,.cls-12,.cls-15,.cls-3,.cls-4,.cls-6,.cls-8,.cls-9{stroke:#231f20;}.cls-1,.cls-10,.cls-11,.cls-12,.cls-13,.cls-14,.cls-15,.cls-16,.cls-18,.cls-19,.cls-20,.cls-21,.cls-3,.cls-4,.cls-6,.cls-8,.cls-9{stroke-miterlimit:10;}.cls-1,.cls-11,.cls-13,.cls-14,.cls-4{opacity:0.42;}.cls-2{fill:#231f20;}.cls-4{fill:#fdcc9a;}.cls-5{opacity:0.55;}.cls-6{stroke-dasharray:5.54 5.54;}.cls-7{opacity:0.54;}.cls-8{stroke-dasharray:6.09 6.09;}.cls-9{stroke-dasharray:5.61 5.61;}.cls-10{stroke-dasharray:6.14 6.14;}.cls-11{fill:#afd9d3;}.cls-12{stroke-dasharray:6.05 6.05;}.cls-13{stroke:#fdcc9a;}.cls-13,.cls-14{stroke-width:6px;}.cls-14{stroke:#afd9d3;}.cls-15{stroke-dasharray:5.79 5.79;}.cls-16{fill:#cb2026;}.cls-16,.cls-18,.cls-20,.cls-21{stroke:#cc2128;stroke-width:0.5px;}.cls-17{fill:#ed1c24;}.cls-19{stroke:#ed1c24;}.cls-20{stroke-dasharray:6.37 6.37;}.cls-21{stroke-dasharray:5.68 5.68;}</style></defs><g id="Layer_2" data-name="Layer 2"><g id="Layer_1-2" data-name="Layer 1"><path class="cls-1" d="M314.26,340.53l-.39.77" transform="translate(-2.28)"/><path class="cls-2" d="M132.2,161.56a2.82,2.82,0,0,1-2.5,1.52,2.09,2.09,0,0,1-1.91-1v1.08a18.51,18.51,0,0,0,.2,3.28h-1.42a13.6,13.6,0,0,1-.25-3.21V154.2h1.56v5.15c0,1.35.58,2.47,2,2.47a2.32,2.32,0,0,0,2.09-1.46,2.38,2.38,0,0,0,.15-.81V154.2h1.56v6.32c0,.95.2,1.33.83,1.37l-.12,1.15a1.69,1.69,0,0,1-.54.07c-.78,0-1.41-.43-1.55-1.55Z" transform="translate(-2.28)"/><path class="cls-2" d="M137.43,163h0l-1.18.64-.18-.71,1.49-.8h.79v6.83h-.9Z" transform="translate(-2.28)"/><polyline class="cls-3" points="424.63 74.33 61.88 74.33 61.88 16.18"/><path class="cls-2" d="M433,74.33a30.18,30.18,0,0,1-8.55-4.75l1.72,4.75-1.72,4.76A30.2,30.2,0,0,1,433,74.33Z" transform="translate(-2.28)"/><path class="cls-2" d="M64.16,10.14a30.34,30.34,0,0,0,4.76,8.55L64.16,17l-4.75,1.72A30.31,30.31,0,0,0,64.16,10.14Z" transform="translate(-2.28)"/><path class="cls-3" d="M68,74.4s3.26,0,16-2.63c20.7-4.27,33.65-37,44.83-37s26.13,22.72,40,22.79,30.79-11.38,30.79-11.38l.24-.1c14.8-11.64,25.33-22.81,40.77-22.82,29.78,0,39.47,40.48,94.51,48,6.67.91,28.59,1.85,32.18,1.85" transform="translate(-2.28)"/><path class="cls-4" d="M68,74.4a57.87,57.87,0,0,0,8.59-.81c31.08-5.27,35.7-32.89,52.27-32.9s21.45,28,52.26,32.9a56.32,56.32,0,0,0,8.89.71l56.74.1" transform="translate(-2.28)"/><g class="cls-5"><line class="cls-2" x1="126.57" y1="40.69" x2="126.57" y2="74.4"/><line class="cls-3" x1="126.57" y1="40.69" x2="126.57" y2="43.69"/><line class="cls-6" x1="126.57" y1="49.23" x2="126.57" y2="68.63"/><line class="cls-3" x1="126.57" y1="71.4" x2="126.57" y2="74.4"/></g><path class="cls-1" d="M142.13,71c-27.82,3.37-69.38,3.31-72.82,3.37" transform="translate(-2.28)"/><path class="cls-1" d="M199.67,46l-.51.4" transform="translate(-2.28)"/><g class="cls-7"><line class="cls-3" x1="238.39" y1="23.24" x2="238.39" y2="26.24"/><line class="cls-8" x1="238.39" y1="32.33" x2="238.39" y2="138.85"/><line class="cls-3" x1="238.39" y1="141.9" x2="238.39" y2="144.9"/></g><path class="cls-1" d="M240.9,23.24c-29.59,0-42,41-98.55,47.84" transform="translate(-2.28)"/><path class="cls-1" d="M335.42,71.21c-55.05-7.49-64.73-48-94.52-48" transform="translate(-2.28)"/><polyline class="cls-3" points="424.63 145.64 62.58 145.64 62.58 87.48"/><path class="cls-2" d="M433,145.64a30.2,30.2,0,0,1-8.55-4.76l1.72,4.76-1.72,4.75A30.18,30.18,0,0,1,433,145.64Z" transform="translate(-2.28)"/><path class="cls-2" d="M64.86,81.45A30.53,30.53,0,0,0,69.62,90l-4.76-1.72L60.11,90A30.26,30.26,0,0,0,64.86,81.45Z" transform="translate(-2.28)"/><path class="cls-3" d="M68.7,145.71s4.1,2.61,16-2.64c20.57-9,34.35-48.45,45.53-48.45,17.66,0,21.48,51.53,71.1,33.31h0c18.63-5.43,23.77-5.38,39.21-5.39,25.11-.55,82.15,24.6,127.5,21.82" transform="translate(-2.28)"/><path class="cls-4" d="M68.7,145.71a59.28,59.28,0,0,0,8.59-.81c31.09-5.28,37.11-45.59,53.67-45.6s20,40.67,50.87,45.6a57.13,57.13,0,0,0,8.89.7l56.73.11" transform="translate(-2.28)"/><g class="cls-5"><line class="cls-3" x1="126.57" y1="54.77" x2="126.6" y2="57.77"/><line class="cls-9" x1="126.64" y1="63.38" x2="127.23" y2="139.09"/><line class="cls-3" x1="127.25" y1="141.9" x2="127.28" y2="144.9"/></g><path class="cls-1" d="M142.83,142.29C115,145.66,73.46,145.6,70,145.66" transform="translate(-2.28)"/><path class="cls-1" d="M240.79,122.54c-29.59,0-41.22,13-97.74,19.84" transform="translate(-2.28)"/><path class="cls-1" d="M336.12,142.52c-55-7.5-65.54-20-95.33-20" transform="translate(-2.28)"/><path class="cls-2" d="M231.58,163.37a2.83,2.83,0,0,1-2.5,1.51,2.1,2.1,0,0,1-1.91-.95V165a18.46,18.46,0,0,0,.2,3.27H226a13.55,13.55,0,0,1-.25-3.2V156h1.56v5.15c0,1.35.58,2.47,2,2.47a2.32,2.32,0,0,0,2.09-1.46,2.29,2.29,0,0,0,.15-.81V156H233v6.32c0,1,.2,1.33.83,1.37l-.12,1.15a1.43,1.43,0,0,1-.54.08c-.78,0-1.41-.44-1.55-1.55Z" transform="translate(-2.28)"/><path class="cls-2" d="M239.34,167.23c0,2.32-.86,3.6-2.37,3.6-1.33,0-2.24-1.25-2.26-3.51s1-3.55,2.38-3.55S239.34,165.05,239.34,167.23Zm-3.7.1c0,1.77.54,2.78,1.38,2.78s1.4-1.1,1.4-2.84-.43-2.78-1.39-2.78C236.23,164.49,235.64,165.47,235.64,167.33Z" transform="translate(-2.28)"/><path class="cls-2" d="M242.66,158.65v-1.08H252v1.08Zm0,3.53V161.1H252v1.08Z" transform="translate(-2.28)"/><path class="cls-2" d="M265.08,158.74c0,4-1.48,6.18-4.07,6.18-2.29,0-3.84-2.15-3.87-6s1.69-6.08,4.06-6.08S265.08,155,265.08,158.74Zm-6.36.18c0,3,.94,4.77,2.38,4.77,1.62,0,2.39-1.89,2.39-4.88s-.74-4.77-2.38-4.77C259.73,154,258.72,155.73,258.72,158.92Z" transform="translate(-2.28)"/><path class="cls-2" d="M308,351.36a2.82,2.82,0,0,1-2.5,1.52,2.09,2.09,0,0,1-1.91-1V353a18.51,18.51,0,0,0,.2,3.28H302.4a13.6,13.6,0,0,1-.25-3.21V344h1.56v5.15c0,1.35.58,2.47,2,2.47a2.33,2.33,0,0,0,2.09-1.46,2.38,2.38,0,0,0,.15-.81V344h1.56v6.32c0,.95.2,1.33.83,1.37l-.12,1.15a1.69,1.69,0,0,1-.54.07c-.78,0-1.41-.43-1.55-1.55Z" transform="translate(-2.28)"/><path class="cls-2" d="M311.26,358.71v-.57l.72-.7c1.74-1.66,2.53-2.54,2.54-3.57a1.21,1.21,0,0,0-1.35-1.33,2.32,2.32,0,0,0-1.45.57l-.29-.65a3,3,0,0,1,1.93-.69,1.92,1.92,0,0,1,2.09,2c0,1.26-.92,2.28-2.36,3.67l-.54.5v0h3.06v.77Z" transform="translate(-2.28)"/><g class="cls-7"><line class="cls-3" x1="240.59" y1="236.78" x2="240.59" y2="239.78"/><line class="cls-10" x1="240.59" y1="245.93" x2="240.59" y2="328.87"/><line class="cls-3" x1="240.59" y1="331.94" x2="240.59" y2="334.94"/></g><polyline class="cls-3" points="426.06 259.92 64.02 259.92 64.02 201.76"/><path class="cls-2" d="M434.38,259.92a30.34,30.34,0,0,1-8.55-4.76l1.72,4.76-1.72,4.75A30.31,30.31,0,0,1,434.38,259.92Z" transform="translate(-2.28)"/><path class="cls-2" d="M66.3,195.72a30.18,30.18,0,0,0,4.75,8.55l-4.75-1.72-4.76,1.72A30,30,0,0,0,66.3,195.72Z" transform="translate(-2.28)"/><path class="cls-3" d="M391.26,259.64s-34.92-2-46.85-7.26c-20.57-9-27.17-50.84-38.34-50.84-9.52,0-12.79,18.4-26.42,26.92-10,6.24-30.16,8.36-37.28,8.36-25.11-.56-82.15,24.6-127.51,21.82" transform="translate(-2.28)"/><path class="cls-11" d="M346.78,260a27.43,27.43,0,0,1-5.81-.8c-21-5.28-25.11-45.59-36.32-45.6s-13.57,40.67-34.42,45.6a26.61,26.61,0,0,1-6,.7l-38.39.1" transform="translate(-2.28)"/><g class="cls-5"><line class="cls-3" x1="303.1" y1="201.94" x2="303.11" y2="204.94"/><line class="cls-12" x1="303.15" y1="210.99" x2="303.8" y2="328.92"/><line class="cls-3" x1="303.82" y1="331.94" x2="303.84" y2="334.94"/></g><path class="cls-1" d="M340.11,256.57c27.82,3.37,69.37,3.31,72.82,3.37" transform="translate(-2.28)"/><path class="cls-1" d="M242.15,236.82c29.59,0,41.22,13,97.74,19.84" transform="translate(-2.28)"/><path class="cls-1" d="M146.82,256.8c55-7.5,65.54-20,95.33-20" transform="translate(-2.28)"/><polyline class="cls-3" points="425.71 335.79 64.37 335.79 64.37 277.63"/><path class="cls-2" d="M434,335.79a30.59,30.59,0,0,1-8.55-4.76l1.72,4.76-1.72,4.75A30.31,30.31,0,0,1,434,335.79Z" transform="translate(-2.28)"/><path class="cls-2" d="M66.65,271.59a30,30,0,0,0,4.76,8.55l-4.76-1.72-4.76,1.72A30,30,0,0,0,66.65,271.59Z" transform="translate(-2.28)"/><path class="cls-3" d="M383.48,334.45s-36.25,1.82-52.7-8.23c-14.82-9.05-14.49-11.93-24.66-18.74-10.56-7.08-11.34-7.25-26.47-11.93-17.56-5.44-19.6-19.6-38.28-21.16-29.68-2.49-38.18,51.11-93.22,58.6-6.66.91-28.59,1.84-32.18,1.85" transform="translate(-2.28)"/><path class="cls-1" d="M341.22,332.77c27.81,3.37,69.37,3.31,72.82,3.37" transform="translate(-2.28)"/><path class="cls-1" d="M241.15,274.39c29.7,2.13,44.72,52.26,99.85,58.46" transform="translate(-2.28)"/><path class="cls-1" d="M147.93,333c55-7.49,63.43-58.62,93.22-58.6" transform="translate(-2.28)"/><path class="cls-2" d="M233,353.17a2.84,2.84,0,0,1-2.5,1.51,2.08,2.08,0,0,1-1.91-1v1.08a18.57,18.57,0,0,0,.19,3.28h-1.42a13.55,13.55,0,0,1-.25-3.2V345.8h1.57V351c0,1.35.57,2.47,2,2.47a2.34,2.34,0,0,0,2.09-1.46,2.29,2.29,0,0,0,.14-.81V345.8h1.57v6.32c0,1,.2,1.33.83,1.37l-.13,1.15a1.43,1.43,0,0,1-.54.08c-.77,0-1.4-.44-1.55-1.55Z" transform="translate(-2.28)"/><path class="cls-2" d="M240.78,357c0,2.32-.86,3.6-2.37,3.6-1.34,0-2.24-1.25-2.26-3.51s1-3.55,2.37-3.55S240.78,354.85,240.78,357Zm-3.71.1c0,1.77.55,2.78,1.39,2.78s1.39-1.1,1.39-2.84-.43-2.78-1.38-2.78S237.07,355.27,237.07,357.13Z" transform="translate(-2.28)"/><path class="cls-2" d="M244.1,348.45v-1.08h9.29v1.08Zm0,3.53V350.9h9.29V352Z" transform="translate(-2.28)"/><path class="cls-2" d="M266.51,348.54c0,4-1.48,6.18-4.07,6.18-2.29,0-3.83-2.15-3.87-6s1.69-6.08,4.07-6.08S266.51,344.81,266.51,348.54Zm-6.36.18c0,3,.94,4.77,2.38,4.77,1.62,0,2.4-1.89,2.4-4.88s-.74-4.77-2.38-4.77C261.16,343.84,260.15,345.53,260.15,348.72Z" transform="translate(-2.28)"/><path class="cls-2" d="M243.8,177.42a1.07,1.07,0,0,1,1.14,1.08,1.14,1.14,0,1,1-1.14-1.08Z" transform="translate(-2.28)"/><path class="cls-2" d="M243.8,185a1.07,1.07,0,0,1,1.14,1.08A1.14,1.14,0,1,1,243.8,185Z" transform="translate(-2.28)"/><path class="cls-2" d="M243.8,192.5a1.07,1.07,0,0,1,1.14,1.08,1.14,1.14,0,1,1-1.14-1.08Z" transform="translate(-2.28)"/><path class="cls-2" d="M243.09,364.25a1.08,1.08,0,1,1-1.14,1.07A1.06,1.06,0,0,1,243.09,364.25Z" transform="translate(-2.28)"/><path class="cls-2" d="M243.09,371.8a1.06,1.06,0,0,1,1.13,1.08,1,1,0,0,1-1.13,1.06,1.07,1.07,0,1,1,0-2.14Z" transform="translate(-2.28)"/><path class="cls-2" d="M243.09,379.34a1.06,1.06,0,0,1,1.13,1.08,1.14,1.14,0,0,1-2.27,0A1.06,1.06,0,0,1,243.09,379.34Z" transform="translate(-2.28)"/><path class="cls-11" d="M346.78,335.79c-1.3,0-3.37-.06-5.81-.22-21-1.45-25.11-12.47-36.32-12.47s-13.57,11.12-34.42,12.47c-2.53.16-4.66.19-6,.19l-38.39,0" transform="translate(-2.28)"/><path class="cls-2" d="M41.94,62.17c.63,0,1.34.07,2.4.07H49.4c2,0,3.22.39,4,1.24a4.63,4.63,0,0,1,1,3.17,5.62,5.62,0,0,1-.72,2.9l-1.21-.4a4.87,4.87,0,0,0,.69-2.55c0-1.62-.85-2.81-3-2.81h-1v0a3.13,3.13,0,0,1,1.46,2.78c0,2.16-1.83,3.7-4.25,3.7-2.95,0-4.62-1.92-4.62-3.92a2.9,2.9,0,0,1,1.51-2.72v0l-1.32-.08Zm3.44,1.63a2.06,2.06,0,0,0-.72.1A2.27,2.27,0,0,0,43,66.11c0,1.51,1.28,2.59,3.29,2.59,1.71,0,3.14-.86,3.14-2.57a2.33,2.33,0,0,0-1.63-2.2A2.72,2.72,0,0,0,47,63.8Z" transform="translate(-2.28)"/><path class="cls-2" d="M48.28,52.32c.9,0,1.69,0,2.38-.07v1.4l-1.42.09v0a3.27,3.27,0,0,1,1.62,2.88c0,1.37-.76,3-3.82,3h-5.1V58.08h4.83c1.65,0,2.77-.5,2.77-1.94a2.22,2.22,0,0,0-2.25-2.23H41.94V52.32Z" transform="translate(-2.28)"/><path class="cls-2" d="M39.5,47.93a1,1,0,0,1,0,2,1,1,0,0,1-1-1A1,1,0,0,1,39.5,47.93ZM50.66,49.7H41.94V48.11h8.72Z" transform="translate(-2.28)"/><path class="cls-2" d="M37.87,38H48.41c.77,0,1.65,0,2.25-.08v1.43l-1.51.07v0a3.21,3.21,0,0,1,1.71,3c0,2.1-1.79,3.72-4.43,3.72-2.9,0-4.68-1.78-4.68-3.9a2.9,2.9,0,0,1,1.33-2.63v0H37.87Zm7.62,1.58a3.05,3.05,0,0,0-.67.07A2.34,2.34,0,0,0,43,41.9c0,1.64,1.44,2.61,3.36,2.61,1.77,0,3.23-.86,3.23-2.57a2.38,2.38,0,0,0-1.89-2.33,3,3,0,0,0-.69-.07Z" transform="translate(-2.28)"/><path class="cls-2" d="M46.59,34.45a2.79,2.79,0,0,0,3-3,5.59,5.59,0,0,0-.45-2.41l1.14-.27a7.09,7.09,0,0,1,.54,2.9A4,4,0,0,1,46.44,36c-2.62,0-4.69-1.55-4.69-4.09,0-2.84,2.5-3.6,4.1-3.6a5.45,5.45,0,0,1,.74.06ZM45.45,29.8A2.26,2.26,0,0,0,42.88,32a2.63,2.63,0,0,0,2.57,2.43Z" transform="translate(-2.28)"/><path class="cls-2" d="M50.66,25.7H44.73v0L45.36,27l-.93.2-.79-1.69v-1.1h7Z" transform="translate(-2.28)"/><path class="cls-2" d="M50.66,21.31H44.73v0l.63,1.29-.93.2-.79-1.69v-1.1h7Z" transform="translate(-2.28)"/><path class="cls-2" d="M45.23,133.47c.63,0,1.33.07,2.39.07h5.06c2,0,3.23.4,4,1.25A4.57,4.57,0,0,1,57.71,138a5.59,5.59,0,0,1-.72,2.9l-1.21-.39a4.94,4.94,0,0,0,.68-2.56c0-1.62-.84-2.81-3-2.81h-1v0a3.1,3.1,0,0,1,1.46,2.77c0,2.16-1.84,3.71-4.25,3.71-2.95,0-4.63-1.93-4.63-3.93A2.88,2.88,0,0,1,46.54,135v0l-1.31-.07Zm3.44,1.64a2.32,2.32,0,0,0-2.4,2.3c0,1.52,1.28,2.6,3.3,2.6,1.71,0,3.13-.87,3.13-2.58a2.33,2.33,0,0,0-1.62-2.2,2.77,2.77,0,0,0-.85-.12Z" transform="translate(-2.28)"/><path class="cls-2" d="M51.57,123.63c.9,0,1.69,0,2.37-.08V125l-1.42.09v0A3.3,3.3,0,0,1,54.14,128c0,1.37-.75,3-3.82,3H45.23v-1.58h4.82c1.66,0,2.78-.51,2.78-1.95a2.3,2.3,0,0,0-1.44-2.09,2.38,2.38,0,0,0-.81-.14H45.23v-1.58Z" transform="translate(-2.28)"/><path class="cls-2" d="M42.78,119.23a1,1,0,0,1,0,2,1,1,0,0,1-1-1A.94.94,0,0,1,42.78,119.23ZM53.94,121H45.23v-1.58h8.71Z" transform="translate(-2.28)"/><path class="cls-2" d="M41.16,109.26H51.69c.78,0,1.66,0,2.25-.07v1.42l-1.51.07v0a3.23,3.23,0,0,1,1.71,3c0,2.11-1.78,3.73-4.43,3.73-2.9,0-4.68-1.79-4.68-3.91a2.93,2.93,0,0,1,1.33-2.63v0h-5.2Zm7.62,1.59a2.55,2.55,0,0,0-.67.07,2.33,2.33,0,0,0-1.84,2.28c0,1.64,1.44,2.61,3.37,2.61,1.77,0,3.22-.86,3.22-2.57A2.38,2.38,0,0,0,51,110.92a2.45,2.45,0,0,0-.68-.07Z" transform="translate(-2.28)"/><path class="cls-2" d="M49.87,105.75a2.79,2.79,0,0,0,3-3,5.78,5.78,0,0,0-.45-2.41l1.13-.27a6.93,6.93,0,0,1,.54,2.9,4,4,0,0,1-4.39,4.28c-2.63,0-4.7-1.54-4.7-4.08,0-2.85,2.5-3.6,4.11-3.6a5.63,5.63,0,0,1,.73,0Zm-1.13-4.64a2.25,2.25,0,0,0-2.57,2.19,2.61,2.61,0,0,0,2.57,2.43Z" transform="translate(-2.28)"/><path class="cls-2" d="M53.94,97H48v0l.63,1.3-.94.2-.79-1.7V95.75h7Z" transform="translate(-2.28)"/><path class="cls-2" d="M53.28,94.32l-1.07-1.13C50.86,91.7,50,90.92,49.1,90.92a1.22,1.22,0,0,0-1.26,1.37,2.69,2.69,0,0,0,.56,1.51l-.81.38a3.48,3.48,0,0,1-.76-2.2,2.1,2.1,0,0,1,2-2.39c1.35,0,2.34,1,3.54,2.39l.51.56h0V89.46h1v4.86Z" transform="translate(-2.28)"/><path class="cls-2" d="M47.69,249.43c.63,0,1.34.08,2.4.08h5.06c2,0,3.22.39,4,1.24a4.62,4.62,0,0,1,1,3.17,5.64,5.64,0,0,1-.72,2.9l-1.2-.4a4.94,4.94,0,0,0,.68-2.56c0-1.62-.85-2.81-3-2.81h-1v0a3.11,3.11,0,0,1,1.46,2.77c0,2.16-1.83,3.71-4.25,3.71-2.95,0-4.62-1.92-4.62-3.92A2.89,2.89,0,0,1,49,250.93v0l-1.32-.07Zm3.44,1.64a2.33,2.33,0,0,0-.72.09,2.29,2.29,0,0,0-1.67,2.22C48.74,254.89,50,256,52,256c1.71,0,3.14-.86,3.14-2.57a2.32,2.32,0,0,0-1.62-2.2,2.79,2.79,0,0,0-.85-.13Z" transform="translate(-2.28)"/><path class="cls-2" d="M54,239.59c.9,0,1.69,0,2.38-.07v1.4L55,241v0a3.27,3.27,0,0,1,1.62,2.88c0,1.37-.76,3-3.82,3h-5.1v-1.58h4.83c1.66,0,2.77-.5,2.77-1.94A2.25,2.25,0,0,0,53,241.17H47.69v-1.58Z" transform="translate(-2.28)"/><path class="cls-2" d="M45.25,235.2a1,1,0,0,1,0,2,1,1,0,0,1-1-1A1,1,0,0,1,45.25,235.2ZM56.41,237H47.69v-1.58h8.72Z" transform="translate(-2.28)"/><path class="cls-2" d="M43.62,225.22H54.16c.77,0,1.65,0,2.25-.07v1.43l-1.51.07v0a3.23,3.23,0,0,1,1.71,3c0,2.11-1.79,3.73-4.43,3.73-2.9,0-4.68-1.78-4.68-3.91a2.9,2.9,0,0,1,1.33-2.62v0H43.62Zm7.62,1.59a2.9,2.9,0,0,0-.66.07,2.34,2.34,0,0,0-1.84,2.29c0,1.64,1.44,2.61,3.37,2.61,1.76,0,3.22-.87,3.22-2.58a2.38,2.38,0,0,0-1.89-2.32,3,3,0,0,0-.69-.07Z" transform="translate(-2.28)"/><path class="cls-2" d="M52.34,221.72a2.79,2.79,0,0,0,3-3,5.65,5.65,0,0,0-.45-2.42l1.14-.26a7,7,0,0,1,.54,2.89,4,4,0,0,1-4.39,4.29c-2.63,0-4.7-1.55-4.7-4.09,0-2.84,2.5-3.6,4.1-3.6.33,0,.58,0,.74.05Zm-1.13-4.65a2.26,2.26,0,0,0-2.58,2.2,2.63,2.63,0,0,0,2.58,2.43Z" transform="translate(-2.28)"/><path class="cls-2" d="M55.74,214.68l-1.06-1.13c-1.35-1.5-2.2-2.27-3.11-2.27a1.22,1.22,0,0,0-1.27,1.36,2.77,2.77,0,0,0,.56,1.52l-.81.38a3.54,3.54,0,0,1-.75-2.2,2.11,2.11,0,0,1,2-2.4c1.35,0,2.34,1,3.55,2.4l.5.56h0v-3.08h1v4.86Z" transform="translate(-2.28)"/><path class="cls-2" d="M56.41,207.37H50.49v0l.63,1.29-.94.2-.79-1.69v-1.1h7Z" transform="translate(-2.28)"/><path class="cls-2" d="M49.38,320.62c.63,0,1.33.07,2.39.07h5.06c2,0,3.23.4,4,1.24a4.61,4.61,0,0,1,1,3.17,5.59,5.59,0,0,1-.72,2.9l-1.21-.39a4.94,4.94,0,0,0,.69-2.56c0-1.62-.85-2.81-3-2.81h-1v0a3.1,3.1,0,0,1,1.46,2.77c0,2.16-1.84,3.71-4.25,3.71-3,0-4.63-1.93-4.63-3.93a2.9,2.9,0,0,1,1.51-2.72v0L49.38,322Zm3.44,1.64a2.32,2.32,0,0,0-2.4,2.3c0,1.52,1.28,2.6,3.3,2.6,1.71,0,3.13-.87,3.13-2.58a2.33,2.33,0,0,0-1.62-2.2,2.71,2.71,0,0,0-.84-.12Z" transform="translate(-2.28)"/><path class="cls-2" d="M55.72,310.77c.9,0,1.69,0,2.37-.07v1.41l-1.42.09v0a3.3,3.3,0,0,1,1.62,2.88c0,1.37-.75,3-3.81,3h-5.1v-1.58h4.83c1.65,0,2.77-.51,2.77-2a2.3,2.3,0,0,0-1.44-2.09,2.33,2.33,0,0,0-.81-.14H49.38v-1.59Z" transform="translate(-2.28)"/><path class="cls-2" d="M46.93,306.38a1,1,0,0,1,0,2,1,1,0,0,1-1-1A.94.94,0,0,1,46.93,306.38Zm11.16,1.77H49.38v-1.59h8.71Z" transform="translate(-2.28)"/><path class="cls-2" d="M45.31,296.41H55.84c.78,0,1.66,0,2.25-.07v1.42l-1.51.07v0a3.22,3.22,0,0,1,1.71,3c0,2.11-1.78,3.73-4.43,3.73-2.9,0-4.68-1.79-4.68-3.91A2.93,2.93,0,0,1,50.51,298v0h-5.2ZM52.93,298a2.55,2.55,0,0,0-.67.07,2.33,2.33,0,0,0-1.84,2.28c0,1.64,1.44,2.61,3.37,2.61,1.77,0,3.22-.86,3.22-2.57a2.37,2.37,0,0,0-1.89-2.32,2.45,2.45,0,0,0-.68-.07Z" transform="translate(-2.28)"/><path class="cls-2" d="M54,292.9a2.78,2.78,0,0,0,3-3,5.75,5.75,0,0,0-.45-2.41l1.13-.27a6.93,6.93,0,0,1,.54,2.9,4,4,0,0,1-4.39,4.28c-2.63,0-4.7-1.54-4.7-4.08,0-2.85,2.5-3.6,4.11-3.6a6,6,0,0,1,.74,0Zm-1.14-4.64a2.25,2.25,0,0,0-2.57,2.19,2.61,2.61,0,0,0,2.57,2.43Z" transform="translate(-2.28)"/><path class="cls-2" d="M57.43,285.87l-1.06-1.14c-1.35-1.49-2.2-2.27-3.12-2.27A1.22,1.22,0,0,0,52,283.83a2.69,2.69,0,0,0,.56,1.51l-.81.38a3.46,3.46,0,0,1-.76-2.2,2.1,2.1,0,0,1,2-2.39c1.35,0,2.34,1,3.54,2.39l.51.56h0V281h1v4.87Z" transform="translate(-2.28)"/><path class="cls-2" d="M57.43,280.27l-1.06-1.14c-1.35-1.49-2.2-2.27-3.12-2.27A1.23,1.23,0,0,0,52,278.23a2.76,2.76,0,0,0,.56,1.52l-.81.37a3.43,3.43,0,0,1-.76-2.19,2.11,2.11,0,0,1,2-2.4c1.35,0,2.34,1,3.54,2.4l.51.55h0v-3.07h1v4.86Z" transform="translate(-2.28)"/><path class="cls-2" d="M11,126.94a2.79,2.79,0,0,0,3-3,5.71,5.71,0,0,0-.45-2.41l1.14-.27a7.06,7.06,0,0,1,.54,2.9,4,4,0,0,1-4.4,4.28c-2.63,0-4.7-1.55-4.7-4.09,0-2.84,2.51-3.6,4.11-3.6a5.61,5.61,0,0,1,.74.06Zm-1.14-4.65a2.25,2.25,0,0,0-2.57,2.2,2.62,2.62,0,0,0,2.57,2.43Z" transform="translate(-2.28)"/><path class="cls-2" d="M2.28,118.8v-1.58H15.07v1.58Z" transform="translate(-2.28)"/><path class="cls-2" d="M11,113.67a2.78,2.78,0,0,0,3-3,5.78,5.78,0,0,0-.45-2.41l1.14-.27a7.09,7.09,0,0,1,.54,2.9,4,4,0,0,1-4.4,4.28c-2.63,0-4.7-1.54-4.7-4.08,0-2.85,2.51-3.6,4.11-3.6a6,6,0,0,1,.74,0ZM9.86,109a2.25,2.25,0,0,0-2.57,2.19,2.61,2.61,0,0,0,2.57,2.43Z" transform="translate(-2.28)"/><path class="cls-2" d="M8.71,105.54c-.9,0-1.64,0-2.36.07v-1.39l1.41-.07v-.05a3,3,0,0,1-1.61-2.74A2.58,2.58,0,0,1,7.9,98.89v0a3.43,3.43,0,0,1-1.13-1A2.93,2.93,0,0,1,6.15,96c0-1.15.76-2.86,3.78-2.86h5.14v1.54H10.13c-1.67,0-2.68.62-2.68,1.89a2.07,2.07,0,0,0,1.44,1.88,2.68,2.68,0,0,0,.79.12h5.39v1.55H9.84c-1.38,0-2.39.61-2.39,1.82a2.16,2.16,0,0,0,1.58,2,2.24,2.24,0,0,0,.78.13h5.26v1.55Z" transform="translate(-2.28)"/><path class="cls-2" d="M11,89.64a2.78,2.78,0,0,0,3-3,5.78,5.78,0,0,0-.45-2.41L14.71,84a7.09,7.09,0,0,1,.54,2.9,4,4,0,0,1-4.4,4.28c-2.63,0-4.7-1.54-4.7-4.08,0-2.85,2.51-3.6,4.11-3.6a6,6,0,0,1,.74,0ZM9.86,85a2.25,2.25,0,0,0-2.57,2.19,2.61,2.61,0,0,0,2.57,2.43Z" transform="translate(-2.28)"/><path class="cls-2" d="M8.71,81.51c-.9,0-1.64,0-2.36.07v-1.4l1.44-.1v0a3.2,3.2,0,0,1-1.64-2.88c0-1.21.72-3.08,3.71-3.08h5.21v1.58H10c-1.4,0-2.57.53-2.57,2a2.25,2.25,0,0,0,1.62,2.12,2.1,2.1,0,0,0,.74.11h5.24v1.59Z" transform="translate(-2.28)"/><path class="cls-2" d="M3.85,69.68h2.5V67.41H7.56v2.27h4.7c1.08,0,1.69-.31,1.69-1.19a3.31,3.31,0,0,0-.11-.92L15,67.5a3.8,3.8,0,0,1,.22,1.41,2.22,2.22,0,0,1-.67,1.71,3.23,3.23,0,0,1-2.27.61H7.56v1.35H6.35V71.23H4.26Z" transform="translate(-2.28)"/><path class="cls-2" d="M4.84,58.88v0l1.1,2-1.21.31L3.36,58.7V57.35H15.07v1.53Z" transform="translate(-2.28)"/><path class="cls-2" d="M11,315.53a2.78,2.78,0,0,0,3-3,5.75,5.75,0,0,0-.45-2.41l1.14-.27a7.09,7.09,0,0,1,.54,2.9,4,4,0,0,1-4.4,4.28c-2.63,0-4.7-1.54-4.7-4.08,0-2.85,2.51-3.6,4.11-3.6a6,6,0,0,1,.74.05Zm-1.14-4.64a2.25,2.25,0,0,0-2.57,2.19,2.62,2.62,0,0,0,2.57,2.43Z" transform="translate(-2.28)"/><path class="cls-2" d="M2.28,307.4v-1.59H15.07v1.59Z" transform="translate(-2.28)"/><path class="cls-2" d="M11,302.27a2.79,2.79,0,0,0,3-3,5.8,5.8,0,0,0-.45-2.42l1.14-.27a7.13,7.13,0,0,1,.54,2.9,4.05,4.05,0,0,1-4.4,4.29c-2.63,0-4.7-1.55-4.7-4.09,0-2.84,2.51-3.6,4.11-3.6.32,0,.57,0,.74.05Zm-1.14-4.65a2.25,2.25,0,0,0-2.57,2.2,2.62,2.62,0,0,0,2.57,2.43Z" transform="translate(-2.28)"/><path class="cls-2" d="M8.71,294.13c-.9,0-1.64,0-2.36.07v-1.38l1.41-.08v-.05A3,3,0,0,1,6.15,290a2.56,2.56,0,0,1,1.75-2.46v0a3.52,3.52,0,0,1-1.13-1,3,3,0,0,1-.62-1.93c0-1.15.76-2.86,3.78-2.86h5.14v1.55H10.13c-1.67,0-2.68.61-2.68,1.89A2.05,2.05,0,0,0,8.89,287a2.66,2.66,0,0,0,.79.13h5.39v1.55H9.84c-1.38,0-2.39.61-2.39,1.81a2.18,2.18,0,0,0,1.58,2,2.24,2.24,0,0,0,.78.12h5.26v1.55Z" transform="translate(-2.28)"/><path class="cls-2" d="M11,278.24a2.79,2.79,0,0,0,3-3,5.8,5.8,0,0,0-.45-2.42l1.14-.27a7.13,7.13,0,0,1,.54,2.9,4.06,4.06,0,0,1-4.4,4.29c-2.63,0-4.7-1.55-4.7-4.09,0-2.84,2.51-3.6,4.11-3.6a6,6,0,0,1,.74.05Zm-1.14-4.65a2.25,2.25,0,0,0-2.57,2.2,2.62,2.62,0,0,0,2.57,2.43Z" transform="translate(-2.28)"/><path class="cls-2" d="M8.71,270.1c-.9,0-1.64,0-2.36.07v-1.4l1.44-.09v0a3.2,3.2,0,0,1-1.64-2.88c0-1.21.72-3.08,3.71-3.08h5.21v1.59H10c-1.4,0-2.57.52-2.57,2a2.25,2.25,0,0,0,1.62,2.13,2.35,2.35,0,0,0,.74.11h5.24v1.58Z" transform="translate(-2.28)"/><path class="cls-2" d="M3.85,258.27h2.5V256H7.56v2.26h4.7c1.08,0,1.69-.3,1.69-1.18a3.21,3.21,0,0,0-.11-.92l1.19-.08a3.84,3.84,0,0,1,.22,1.41,2.2,2.2,0,0,1-.67,1.71,3.23,3.23,0,0,1-2.27.61H7.56v1.35H6.35v-1.35H4.26Z" transform="translate(-2.28)"/><path class="cls-2" d="M15.07,250.91h-1l-1.2-1.24c-2.85-3-4.36-4.34-6.12-4.36a2.09,2.09,0,0,0-2.29,2.33,4,4,0,0,0,1,2.48l-1.12.5a5.15,5.15,0,0,1-1.19-3.31,3.29,3.29,0,0,1,3.41-3.58c2.16,0,3.9,1.57,6.28,4l.86.94h0v-5.26h1.32Z" transform="translate(-2.28)"/><line class="cls-13" x1="21.5" y1="10.14" x2="21.5" y2="189.77"/><line class="cls-14" x1="21.5" y1="195.85" x2="21.5" y2="375.48"/><line class="cls-3" x1="64.75" y1="479.87" x2="64.75" y2="421.71"/><path class="cls-2" d="M67,415.68a29.91,29.91,0,0,0,4.76,8.54L67,422.5l-4.75,1.72A30.12,30.12,0,0,0,67,415.68Z" transform="translate(-2.28)"/><line class="cls-3" x1="427.5" y1="479.87" x2="64.75" y2="479.87"/><path class="cls-2" d="M435.82,479.87a30,30,0,0,1-8.55-4.76l1.72,4.76-1.72,4.75A30.18,30.18,0,0,1,435.82,479.87Z" transform="translate(-2.28)"/><g class="cls-7"><line class="cls-3" x1="241.26" y1="410.14" x2="241.26" y2="413.14"/><line class="cls-15" x1="241.26" y1="418.93" x2="241.26" y2="473.97"/><line class="cls-3" x1="241.26" y1="476.87" x2="241.26" y2="479.87"/></g><path class="cls-3" d="M244.55,410.14c-41.09,0-58.36,56.91-136.83,66.42" transform="translate(-2.28)"/><path class="cls-3" d="M375.78,476.75c-76.42-10.41-89.87-66.63-131.23-66.61" transform="translate(-2.28)"/><path class="cls-2" d="M20,470.07l3.81,1.26V473l-12.13-4.13v-1.89l12.13-4.14v1.68L20,465.76Zm-1.23-4-3.49,1.19c-.79.27-1.51.45-2.22.63v0c.72.18,1.46.38,2.2.61l3.51,1.19Z" transform="translate(-2.28)"/><path class="cls-2" d="M11,461.12v-1.58H23.78v1.58Z" transform="translate(-2.28)"/><path class="cls-2" d="M11,456.87v-1.58H23.78v1.58Z" transform="translate(-2.28)"/><path class="cls-2" d="M23.46,442.6a5.91,5.91,0,0,1,.5,2.5,4.14,4.14,0,0,1-4.44,4.34,4.43,4.43,0,0,1-4.63-4.68,5.23,5.23,0,0,1,.45-2.2l1.22.36a3.75,3.75,0,0,0-.41,1.84,3,3,0,0,0,3.29,3.08,3,3,0,0,0,3.26-3,4.45,4.45,0,0,0-.43-1.94Z" transform="translate(-2.28)"/><path class="cls-2" d="M19.71,440a2.79,2.79,0,0,0,3-3,5.75,5.75,0,0,0-.45-2.41l1.13-.27a7.09,7.09,0,0,1,.54,2.9,4,4,0,0,1-4.39,4.28c-2.63,0-4.7-1.54-4.7-4.08,0-2.85,2.5-3.6,4.11-3.6a5.63,5.63,0,0,1,.73.05Zm-1.13-4.64A2.25,2.25,0,0,0,16,437.52,2.62,2.62,0,0,0,18.58,440Z" transform="translate(-2.28)"/><path class="cls-2" d="M11,431.84v-1.59H23.78v1.59Z" transform="translate(-2.28)"/><path class="cls-2" d="M11,427.59V426H23.78v1.59Z" transform="translate(-2.28)"/><path class="cls-2" d="M22.16,423.56a4.13,4.13,0,0,0,.63-2.09c0-1.15-.57-1.7-1.29-1.7s-1.17.45-1.61,1.63c-.55,1.56-1.42,2.3-2.46,2.3-1.41,0-2.56-1.13-2.56-3a4.34,4.34,0,0,1,.54-2.14l1.15.4a3.44,3.44,0,0,0-.5,1.78c0,.94.54,1.46,1.19,1.46s1-.52,1.47-1.66c.58-1.51,1.34-2.29,2.63-2.29,1.53,0,2.61,1.19,2.61,3.26a5,5,0,0,1-.59,2.45Z" transform="translate(-2.28)"/><line class="cls-16" x1="219.11" y1="479.87" x2="219.11" y2="416.51"/><path class="cls-17" d="M124.23,514.4h-3.69v-1.33h9v1.33h-3.71v10.81h-1.59Z" transform="translate(-2.28)"/><path class="cls-17" d="M130.7,512.42h1.58v5.44h0a2.9,2.9,0,0,1,1.13-1.12,3.28,3.28,0,0,1,1.62-.45c1.17,0,3,.72,3,3.73v5.19h-1.58v-5c0-1.4-.52-2.59-2-2.59a2.28,2.28,0,0,0-2.12,1.58,1.94,1.94,0,0,0-.11.76v5.26H130.7Z" transform="translate(-2.28)"/><path class="cls-17" d="M141.57,521.14a2.78,2.78,0,0,0,3,3,5.78,5.78,0,0,0,2.41-.45l.27,1.13a6.93,6.93,0,0,1-2.9.54,4,4,0,0,1-4.29-4.39c0-2.63,1.55-4.7,4.09-4.7,2.85,0,3.6,2.51,3.6,4.11a6,6,0,0,1-.05.74Zm4.64-1.14a2.25,2.25,0,0,0-2.19-2.57,2.63,2.63,0,0,0-2.44,2.57Z" transform="translate(-2.28)"/><path class="cls-17" d="M157.59,520.78a4.25,4.25,0,0,1-4.34,4.62,4.14,4.14,0,0,1-4.18-4.48c0-2.92,1.91-4.63,4.32-4.63S157.59,518.11,157.59,520.78Zm-6.91.09c0,1.9,1.09,3.35,2.64,3.35s2.65-1.43,2.65-3.39c0-1.48-.74-3.35-2.61-3.35S150.68,519.21,150.68,520.87Z" transform="translate(-2.28)"/><path class="cls-17" d="M159.58,519.21c0-1,0-1.91-.07-2.72h1.39l0,1.71H161a2.61,2.61,0,0,1,2.41-1.91,1.58,1.58,0,0,1,.45.06v1.49a2.21,2.21,0,0,0-2.67,2,5.32,5.32,0,0,0-.07.74v4.65h-1.57Z" transform="translate(-2.28)"/><path class="cls-17" d="M166.17,521.14a2.79,2.79,0,0,0,3,3,5.8,5.8,0,0,0,2.42-.45l.26,1.13a6.87,6.87,0,0,1-2.89.54,4,4,0,0,1-4.29-4.39c0-2.63,1.55-4.7,4.09-4.7,2.84,0,3.6,2.51,3.6,4.11a5.61,5.61,0,0,1-.06.74Zm4.65-1.14a2.25,2.25,0,0,0-2.2-2.57,2.62,2.62,0,0,0-2.43,2.57Z" transform="translate(-2.28)"/><path class="cls-17" d="M176.22,514v2.5h2.27v1.21h-2.27v4.7c0,1.08.3,1.69,1.19,1.69a3.18,3.18,0,0,0,.91-.11l.08,1.19a3.87,3.87,0,0,1-1.41.21,2.2,2.2,0,0,1-1.71-.66,3.23,3.23,0,0,1-.61-2.27V517.7h-1.35v-1.21h1.35V514.4Z" transform="translate(-2.28)"/><path class="cls-17" d="M182,514a1,1,0,0,1-2,0,1,1,0,0,1,1-1A.94.94,0,0,1,182,514Zm-1.76,11.17v-8.72h1.58v8.72Z" transform="translate(-2.28)"/><path class="cls-17" d="M190.69,524.88a5.76,5.76,0,0,1-2.5.5,4.14,4.14,0,0,1-4.34-4.44,4.43,4.43,0,0,1,4.68-4.63,5.43,5.43,0,0,1,2.2.45l-.36,1.23a3.66,3.66,0,0,0-1.84-.42,3.29,3.29,0,0,0-.05,6.56,4.44,4.44,0,0,0,1.94-.44Z" transform="translate(-2.28)"/><path class="cls-17" d="M197.37,525.21l-.13-1.1h-.05a3.27,3.27,0,0,1-2.67,1.29,2.48,2.48,0,0,1-2.66-2.5c0-2.11,1.87-3.26,5.24-3.24v-.18a1.8,1.8,0,0,0-2-2,4.4,4.4,0,0,0-2.27.65l-.36-1a5.38,5.38,0,0,1,2.86-.78c2.67,0,3.31,1.82,3.31,3.57v3.26a12.14,12.14,0,0,0,.15,2.09Zm-.24-4.45c-1.73,0-3.69.27-3.69,2a1.4,1.4,0,0,0,1.5,1.51,2.16,2.16,0,0,0,2.1-1.46,1.47,1.47,0,0,0,.09-.5Z" transform="translate(-2.28)"/><path class="cls-17" d="M201.22,512.42h1.58v12.79h-1.58Z" transform="translate(-2.28)"/><path class="cls-17" d="M209.28,519.34c0-1.12,0-2-.07-2.85h1.42l.08,1.5h0a3.43,3.43,0,0,1,3.1-1.7c2.1,0,3.69,1.79,3.69,4.43,0,3.13-1.91,4.68-4,4.68a3.08,3.08,0,0,1-2.69-1.36h0v4.73h-1.57Zm1.57,2.32a3.32,3.32,0,0,0,.07.65,2.45,2.45,0,0,0,2.38,1.85c1.67,0,2.64-1.37,2.64-3.37,0-1.74-.91-3.24-2.59-3.24a2.52,2.52,0,0,0-2.39,2,2.26,2.26,0,0,0-.11.64Z" transform="translate(-2.28)"/><path class="cls-17" d="M219.52,512.42h1.59v5.44h0a3,3,0,0,1,1.14-1.12,3.25,3.25,0,0,1,1.62-.45c1.17,0,3,.72,3,3.73v5.19h-1.58v-5c0-1.4-.53-2.59-2-2.59a2.26,2.26,0,0,0-2.12,1.58,1.94,1.94,0,0,0-.11.76v5.26h-1.59Z" transform="translate(-2.28)"/><path class="cls-17" d="M230.4,521.14a2.78,2.78,0,0,0,3,3,5.8,5.8,0,0,0,2.42-.45l.27,1.13a7,7,0,0,1-2.9.54,4,4,0,0,1-4.29-4.39c0-2.63,1.55-4.7,4.09-4.7,2.85,0,3.6,2.51,3.6,4.11a6,6,0,0,1,0,.74ZM235,520a2.25,2.25,0,0,0-2.2-2.57,2.62,2.62,0,0,0-2.43,2.57Z" transform="translate(-2.28)"/><path class="cls-17" d="M238.53,518.85c0-.9,0-1.64-.07-2.36h1.4l.09,1.44h0a3.2,3.2,0,0,1,2.88-1.64c1.21,0,3.08.72,3.08,3.71v5.21h-1.58v-5c0-1.4-.53-2.57-2-2.57a2.24,2.24,0,0,0-2.13,1.62,2.37,2.37,0,0,0-.1.74v5.24h-1.59Z" transform="translate(-2.28)"/><path class="cls-17" d="M256.41,520.78a4.26,4.26,0,0,1-4.34,4.62,4.14,4.14,0,0,1-4.18-4.48c0-2.92,1.91-4.63,4.32-4.63S256.41,518.11,256.41,520.78Zm-6.92.09c0,1.9,1.1,3.35,2.65,3.35s2.65-1.43,2.65-3.39c0-1.48-.74-3.35-2.61-3.35S249.49,519.21,249.49,520.87Z" transform="translate(-2.28)"/><path class="cls-17" d="M260.31,514v2.5h2.27v1.21h-2.27v4.7c0,1.08.31,1.69,1.19,1.69a3.31,3.31,0,0,0,.92-.11l.07,1.19a3.81,3.81,0,0,1-1.4.21,2.18,2.18,0,0,1-1.71-.66,3.23,3.23,0,0,1-.62-2.27V517.7h-1.35v-1.21h1.35V514.4Z" transform="translate(-2.28)"/><path class="cls-17" d="M265.1,516.49l1.91,5.15c.2.58.41,1.26.56,1.78h0c.16-.52.34-1.19.56-1.82l1.73-5.11h1.67l-2.37,6.21c-1.14,3-1.91,4.52-3,5.46a4.31,4.31,0,0,1-1.95,1l-.39-1.33a4.23,4.23,0,0,0,1.38-.77,5,5,0,0,0,1.34-1.77,1.07,1.07,0,0,0,.12-.38,1.18,1.18,0,0,0-.11-.41l-3.22-8Z" transform="translate(-2.28)"/><path class="cls-17" d="M273,519.34c0-1.12,0-2-.07-2.85h1.42l.07,1.5h0a3.42,3.42,0,0,1,3.1-1.7c2.1,0,3.69,1.79,3.69,4.43,0,3.13-1.91,4.68-4,4.68A3.07,3.07,0,0,1,274.6,524h0v4.73H273Zm1.57,2.32a3.32,3.32,0,0,0,.07.65,2.45,2.45,0,0,0,2.38,1.85c1.67,0,2.64-1.37,2.64-3.37,0-1.74-.92-3.24-2.59-3.24a2.52,2.52,0,0,0-2.39,2,2.26,2.26,0,0,0-.11.64Z" transform="translate(-2.28)"/><path class="cls-17" d="M284.12,521.14a2.79,2.79,0,0,0,3,3,5.8,5.8,0,0,0,2.42-.45l.27,1.13a7,7,0,0,1-2.9.54,4,4,0,0,1-4.29-4.39c0-2.63,1.55-4.7,4.09-4.7,2.84,0,3.6,2.51,3.6,4.11,0,.32,0,.57-.05.74Zm4.65-1.14a2.25,2.25,0,0,0-2.2-2.57,2.62,2.62,0,0,0-2.43,2.57Z" transform="translate(-2.28)"/><path class="cls-17" d="M302,523.85h0a3.09,3.09,0,0,1-2.84,1.55c-2,0-3.69-1.76-3.69-4.41,0-3.26,2.1-4.7,3.94-4.7a2.87,2.87,0,0,1,2.68,1.51h0l.05-1.31h1.5c0,.74-.06,1.5-.06,2.39v9.89H302Zm0-3.83a2.93,2.93,0,0,0-.07-.67,2.32,2.32,0,0,0-2.27-1.8c-1.64,0-2.63,1.39-2.63,3.35,0,1.73.83,3.24,2.57,3.24a2.36,2.36,0,0,0,2.27-1.73,2.68,2.68,0,0,0,.13-.75Z" transform="translate(-2.28)"/><path class="cls-17" d="M313.5,522.83c0,.9,0,1.69.07,2.38h-1.4l-.09-1.43h0a3.25,3.25,0,0,1-2.88,1.62c-1.37,0-3-.75-3-3.81v-5.1h1.58v4.83c0,1.65.5,2.77,1.94,2.77a2.28,2.28,0,0,0,2.09-1.44,2.33,2.33,0,0,0,.15-.81v-5.35h1.58Z" transform="translate(-2.28)"/><path class="cls-17" d="M321,525.21l-.12-1.1h-.06a3.24,3.24,0,0,1-2.66,1.29,2.48,2.48,0,0,1-2.67-2.5c0-2.11,1.88-3.26,5.24-3.24v-.18a1.79,1.79,0,0,0-2-2,4.43,4.43,0,0,0-2.27.65l-.36-1a5.41,5.41,0,0,1,2.87-.78c2.66,0,3.31,1.82,3.31,3.57v3.26a13.31,13.31,0,0,0,.14,2.09Zm-.23-4.45c-1.73,0-3.69.27-3.69,2a1.4,1.4,0,0,0,1.49,1.51,2.16,2.16,0,0,0,2.11-1.46,1.76,1.76,0,0,0,.09-.5Z" transform="translate(-2.28)"/><path class="cls-17" d="M324.8,518.85c0-.9,0-1.64-.07-2.36h1.41l.09,1.44h0a3.2,3.2,0,0,1,2.88-1.64c1.21,0,3.08.72,3.08,3.71v5.21h-1.58v-5c0-1.4-.52-2.57-2-2.57a2.24,2.24,0,0,0-2.12,1.62,2.1,2.1,0,0,0-.11.74v5.24H324.8Z" transform="translate(-2.28)"/><path class="cls-17" d="M336.63,514v2.5h2.27v1.21h-2.27v4.7c0,1.08.31,1.69,1.19,1.69a3.31,3.31,0,0,0,.92-.11l.07,1.19a3.83,3.83,0,0,1-1.41.21,2.21,2.21,0,0,1-1.71-.66,3.23,3.23,0,0,1-.61-2.27V517.7h-1.35v-1.21h1.35V514.4Z" transform="translate(-2.28)"/><path class="cls-17" d="M342.44,514a.93.93,0,0,1-1,1,.94.94,0,0,1-1-1,1,1,0,0,1,1-1A.93.93,0,0,1,342.44,514Zm-1.76,11.17v-8.72h1.58v8.72Z" transform="translate(-2.28)"/><path class="cls-17" d="M344.89,512.42h1.59v12.79h-1.59Z" transform="translate(-2.28)"/><path class="cls-17" d="M350,521.14a2.79,2.79,0,0,0,3,3,5.71,5.71,0,0,0,2.41-.45l.27,1.13a6.89,6.89,0,0,1-2.9.54,4,4,0,0,1-4.28-4.39c0-2.63,1.55-4.7,4.09-4.7,2.84,0,3.6,2.51,3.6,4.11a5.61,5.61,0,0,1-.06.74Zm4.65-1.14a2.25,2.25,0,0,0-2.2-2.57A2.62,2.62,0,0,0,350,520Z" transform="translate(-2.28)"/><path class="cls-17" d="M357.94,523.59a4.23,4.23,0,0,0,2.09.63c1.15,0,1.69-.58,1.69-1.3s-.45-1.17-1.62-1.6c-1.56-.56-2.3-1.43-2.3-2.47,0-1.41,1.13-2.56,3-2.56a4.46,4.46,0,0,1,2.15.54l-.4,1.16a3.33,3.33,0,0,0-1.78-.51c-.94,0-1.46.54-1.46,1.19s.52,1,1.66,1.48c1.51.57,2.28,1.33,2.28,2.62,0,1.53-1.19,2.61-3.26,2.61a5,5,0,0,1-2.45-.59Z" transform="translate(-2.28)"/><line class="cls-18" x1="180.25" y1="479.87" x2="180.25" y2="446.34"/><line class="cls-18" x1="303.1" y1="479.87" x2="303.1" y2="446.34"/><line class="cls-16" x1="263.38" y1="479.45" x2="263.38" y2="416.1"/><path class="cls-17" d="M183.19,499.37c-1.37-.36-2.7-.76-3.87-1.17a2.08,2.08,0,0,0-.62-.15c-2.4-.09-4.45-1.86-4.45-5.11s2-5.33,4.71-5.33,4.53,2.13,4.53,5.12c0,2.59-1.2,4.26-2.88,4.84v.06c1,.26,2.1.5,2.95.65Zm-1.08-6.58c0-2-1.05-4.11-3.2-4.11s-3.28,2-3.27,4.23,1.17,4.08,3.21,4.08S182.11,495.1,182.11,492.79Z" transform="translate(-2.28)"/><path class="cls-17" d="M184.44,502.88v-.47l.6-.58c1.45-1.39,2.11-2.12,2.12-3a1,1,0,0,0-1.13-1.11,1.92,1.92,0,0,0-1.21.48l-.24-.54a2.49,2.49,0,0,1,1.61-.58,1.59,1.59,0,0,1,1.73,1.66c0,1.05-.76,1.89-1.95,3.05l-.46.42h2.55v.64Z" transform="translate(-2.28)"/><path class="cls-17" d="M192.7,500c0,1.93-.72,3-2,3-1.11,0-1.86-1-1.88-2.92s.83-3,2-3S192.7,498.17,192.7,500Zm-3.09.09c0,1.48.46,2.31,1.16,2.31s1.16-.91,1.16-2.37-.36-2.31-1.15-2.31S189.61,498.52,189.61,500.07Z" transform="translate(-2.28)"/><path class="cls-17" d="M223.19,499.37c-1.37-.36-2.7-.76-3.87-1.17a2.09,2.09,0,0,0-.61-.15c-2.41-.09-4.46-1.86-4.46-5.11s2-5.33,4.71-5.33,4.53,2.13,4.53,5.12c0,2.59-1.2,4.26-2.88,4.84v.06c1,.26,2.1.5,2.95.65Zm-1.08-6.58c0-2-1.05-4.11-3.19-4.11s-3.29,2-3.28,4.23,1.17,4.08,3.21,4.08S222.11,495.1,222.11,492.79Z" transform="translate(-2.28)"/><path class="cls-17" d="M226.82,502.88v-1.55h-2.64v-.5l2.53-3.63h.83v3.53h.8v.6h-.8v1.55Zm0-2.15v-1.9c0-.29,0-.59,0-.89h0c-.18.33-.32.58-.48.84L225,500.71v0Z" transform="translate(-2.28)"/><path class="cls-17" d="M232.7,500c0,1.93-.72,3-2,3s-1.87-1-1.88-2.92.82-3,2-3S232.7,498.17,232.7,500Zm-3.08.09c0,1.47.45,2.31,1.15,2.31s1.16-.91,1.16-2.37-.36-2.31-1.15-2.31S229.62,498.52,229.62,500.07Z" transform="translate(-2.28)"/><path class="cls-17" d="M267.78,499.37c-1.36-.36-2.7-.76-3.87-1.17a2.09,2.09,0,0,0-.61-.15c-2.4-.09-4.46-1.86-4.46-5.11s2-5.33,4.71-5.33,4.53,2.13,4.53,5.12c0,2.59-1.2,4.26-2.88,4.84v.06c1,.26,2.1.5,3,.65Zm-1.08-6.58c0-2-1.05-4.11-3.19-4.11s-3.29,2-3.27,4.23,1.17,4.08,3.21,4.08S266.7,495.1,266.7,492.79Z" transform="translate(-2.28)"/><path class="cls-17" d="M272.27,497.74a2.37,2.37,0,0,0-.57,0,2.3,2.3,0,0,0-2,2h0a1.73,1.73,0,0,1,3.08,1.18,1.9,1.9,0,0,1-1.89,2c-1.21,0-2-1-2-2.42a3.59,3.59,0,0,1,1-2.57,3.1,3.1,0,0,1,1.82-.83,3.26,3.26,0,0,1,.56-.05Zm-.22,3.28a1.15,1.15,0,0,0-1.17-1.3,1.27,1.27,0,0,0-1.1.7.65.65,0,0,0-.09.34c0,.93.45,1.62,1.25,1.62S272.05,501.83,272.05,501Z" transform="translate(-2.28)"/><path class="cls-17" d="M277.29,500c0,1.93-.71,3-2,3s-1.87-1-1.88-2.92.82-3,2-3S277.29,498.17,277.29,500Zm-3.08.09c0,1.47.45,2.31,1.15,2.31s1.16-.91,1.16-2.37-.35-2.31-1.15-2.31S274.21,498.52,274.21,500.07Z" transform="translate(-2.28)"/><path class="cls-17" d="M307.39,499.37c-1.37-.36-2.7-.76-3.87-1.17a2.08,2.08,0,0,0-.62-.15c-2.4-.09-4.45-1.86-4.45-5.11s2-5.33,4.71-5.33,4.53,2.13,4.53,5.12c0,2.59-1.2,4.26-2.88,4.84v.06c1,.26,2.1.5,2.95.65Zm-1.08-6.58c0-2-1.05-4.11-3.2-4.11s-3.28,2-3.27,4.23S301,497,303.05,497,306.31,495.1,306.31,492.79Z" transform="translate(-2.28)"/><path class="cls-17" d="M308.56,501.44a1.62,1.62,0,0,1,1.13-1.52v0a1.41,1.41,0,0,1-.9-1.27,1.6,1.6,0,0,1,1.76-1.52,1.47,1.47,0,0,1,1.65,1.4,1.44,1.44,0,0,1-.93,1.33v0a1.56,1.56,0,0,1,1.14,1.47,1.75,1.75,0,0,1-1.93,1.65C309.28,503,308.56,502.27,308.56,501.44Zm3.06,0c0-.69-.48-1-1.24-1.24a1.24,1.24,0,0,0-1,1.17,1.06,1.06,0,0,0,1.14,1.09A1,1,0,0,0,311.62,501.4Zm-2.11-2.84c0,.57.43.88,1.08,1.05a1.11,1.11,0,0,0,.87-1,.89.89,0,0,0-1-.93A.91.91,0,0,0,309.51,498.56Z" transform="translate(-2.28)"/><path class="cls-17" d="M316.9,500c0,1.93-.72,3-2,3s-1.86-1-1.88-2.92.82-3,2-3S316.9,498.17,316.9,500Zm-3.09.09c0,1.47.46,2.31,1.16,2.31s1.16-.91,1.16-2.37-.36-2.31-1.16-2.31S313.81,498.52,313.81,500.07Z" transform="translate(-2.28)"/><rect class="cls-19" x="180.25" y="0.5" width="38.85" height="366.03"/><line class="cls-18" x1="219.11" y1="426.67" x2="219.11" y2="423.67"/><line class="cls-20" x1="219.11" y1="417.3" x2="219.11" y2="369.5"/><line class="cls-18" x1="219.11" y1="366.32" x2="219.11" y2="363.32"/><line class="cls-18" x1="180.25" y1="446.34" x2="180.25" y2="443.34"/><line class="cls-21" x1="180.25" y1="437.66" x2="180.25" y2="372.36"/><line class="cls-18" x1="180.25" y1="369.53" x2="180.25" y2="366.53"/></g></g></svg>